<?xml version="1.0" encoding="iso-8859-1"?>
<!-- Generator: Adobe Illustrator 19.0.0, SVG Export Plug-In . SVG Version: 6.00 Build 0)  -->
<svg version="1.1" id="Capa_1" xmlns="http://www.w3.org/2000/svg" xmlns:xlink="http://www.w3.org/1999/xlink" x="0px" y="0px"
	 viewBox="0 0 409.6 409.6" style="enable-background:new 0 0 409.6 409.6;" xml:space="preserve">
<circle style="fill:#45B39C;" cx="204.8" cy="204.8" r="204.8"/>
<path style="opacity:0.1;enable-background:new    ;" d="M223.147,148.907C223.147,148.907,222.72,148.907,223.147,148.907
	c-2.987,2.133-4.267,5.12-5.12,8.96L149.76,89.6c-1.707-2.56-5.12-2.56-7.68-0.853l-17.067,13.227l-15.787,12.373l-3.413,2.56
	c-2.56,1.707-2.987,5.547-0.853,7.68l0,0l25.173,32l25.173,32l9.387,9.387c0,0.853,0.427,1.707,1.28,2.133l4.267,5.547l-8.96,11.093
	l21.333,26.88l133.12,133.12c27.307-17.493,49.92-41.387,66.56-69.547L231.68,157.013C227.413,151.893,224,148.907,223.147,148.907z
	"/>
<path style="opacity:0.1;enable-background:new    ;" d="M290.987,130.56l-0.427-0.427l0,0l0,0
	c-7.68-7.253-17.493-11.52-28.16-12.373l-0.427,8.107l35.84,35.84v0.427l-18.347-18.347l0,0c-5.12-5.12-11.947-8.107-19.2-8.96
	l-0.427,8.107l20.48,20.48c0,2.133,0,4.267-0.427,6.4L268.8,158.72c-3.413-5.547-9.387-8.96-15.787-9.387l-0.427,8.107
	l11.947,11.947c0,1.28,0,2.987-0.427,4.267L388.693,298.24c8.533-16.213,14.507-34.133,18.347-52.48L290.987,130.56z"/>
<g>
	<path style="fill:#3A556A;" d="M261.547,125.44l0.427-8.107c14.507,1.28,27.307,8.533,35.413,20.907
		c7.253,11.093,9.813,24.747,6.4,37.12l-8.107-2.133c2.56-10.667,0.427-21.76-5.547-30.72
		C284.16,132.693,273.493,126.72,261.547,125.44z"/>
	<path style="fill:#3A556A;" d="M259.413,142.933l0.427-8.107c9.387,0.853,17.493,5.547,22.613,13.227
		c4.693,6.827,6.4,15.787,4.267,23.893l-8.107-2.133c1.28-5.973,0.427-12.373-2.987-17.493
		C272.213,147.2,266.24,143.36,259.413,142.933z"/>
	<path style="fill:#3A556A;" d="M251.307,157.013l0.427-8.107c6.4,0.427,12.373,3.84,15.787,9.387
		c3.413,5.12,4.267,11.093,2.987,16.64L262.4,172.8c0.853-3.413,0-7.253-1.707-10.24
		C258.987,159.573,255.573,157.44,251.307,157.013z"/>
</g>
<path style="fill:#E56353;" d="M199.68,161.28l-36.267,28.587c-2.56,1.707-5.973,1.28-7.68-0.853l-50.773-64
	c-1.707-2.56-1.28-5.973,0.853-7.68l36.267-28.587c2.56-1.707,5.973-1.28,7.68,0.853l50.773,64
	C202.667,155.733,202.24,159.573,199.68,161.28z"/>
<path style="fill:#D15241;" d="M182.613,174.507l-19.2,14.933c-2.56,1.707-5.973,1.707-7.68-0.853l-50.347-64
	c-1.707-2.56-1.707-5.973,0.853-7.68l19.2-14.933L182.613,174.507z"/>
<path style="fill:#FCD462;" d="M208.64,244.48l40.107-31.573l-41.387-52.48L167.253,192c-2.56,2.133-2.987,5.973-0.853,8.533
	l33.707,42.667C202.24,245.76,206.08,246.613,208.64,244.48z"/>
<path style="fill:#F6C358;" d="M184.747,178.347L167.253,192c-2.56,2.133-2.987,5.973-0.853,8.533l33.707,42.667
	c2.133,2.56,5.973,2.987,8.533,0.853l17.493-13.653L184.747,178.347z"/>
<polygon style="fill:#FCD462;" points="195.84,238.08 183.04,244.053 161.707,217.173 170.667,206.08 "/>
<g>
	
		<rect x="159.909" y="174.452" transform="matrix(0.7842 -0.6205 0.6205 0.7842 -69.8216 151.9779)" style="fill:#64798A;" width="47.36" height="3.84"/>
	
		<rect x="203.852" y="229.86" transform="matrix(0.7842 -0.6205 0.6205 0.7842 -94.7201 191.2013)" style="fill:#64798A;" width="47.36" height="3.84"/>
</g>
<path style="fill:#E56353;" d="M303.36,292.267l-36.267,28.587c-2.56,1.707-5.973,1.28-7.68-0.853l-50.347-64
	c-1.707-2.56-1.28-5.973,0.853-7.68l36.267-28.587c2.56-1.707,5.973-1.28,7.68,0.853l50.773,64
	C306.347,287.147,305.92,290.56,303.36,292.267z"/>
<path style="fill:#D15241;" d="M286.72,305.92l-19.2,14.933c-2.56,1.707-5.973,1.707-7.68-0.853l-50.773-64
	c-1.707-2.56-1.707-5.973,0.853-7.68l19.2-14.933L286.72,305.92z"/>
<path style="fill:#64798A;" d="M264.107,200.96c-8.533,6.827-24.32,0.427-35.84-14.08c-11.52-14.507-13.653-31.147-5.12-37.973"/>
<ellipse transform="matrix(-0.7842 0.6205 -0.6205 -0.7842 543.2182 160.6553)" style="fill:#3A556A;" cx="243.673" cy="174.787" rx="2.56" ry="33.28"/>
<g>
</g>
<g>
</g>
<g>
</g>
<g>
</g>
<g>
</g>
<g>
</g>
<g>
</g>
<g>
</g>
<g>
</g>
<g>
</g>
<g>
</g>
<g>
</g>
<g>
</g>
<g>
</g>
<g>
</g>
</svg>
